REM DIRINDEX 1\2\5,1\2\6,1\2\7,1\2\8,1\3\9,1\3\10,1\3\11,1\4\12,1\4\13,1\4\14,1\4\15,1\4\16
REM DIRNAME cjc034,folder01,folder02,folder03,folder04,folder05,folder06,folder07,folder08,folder09,folder10,folder11,folder12,folder13,folder14,folder15
TITLE ""
FILE "1200_sec02_0331_0337.mp3" MP3
  TRACK 01 AUDIO
    TITLE "0:"
    INDEX 01 00:00:00
  TRACK 02 AUDIO
    TITLE "12:cjc034_04962"
    INDEX 01 00:00:19
  TRACK 03 AUDIO
    TITLE "0:"
    INDEX 01 00:01:36
  TRACK 04 AUDIO
    TITLE "13:cjc034_04963"
    INDEX 01 00:01:64
  TRACK 05 AUDIO
    TITLE "0:"
    INDEX 01 00:03:49
  TRACK 06 AUDIO
    TITLE "14:cjc034_04964"
    INDEX 01 00:04:07
  TRACK 07 AUDIO
    TITLE "0:"
    INDEX 01 00:05:24
  TRACK 08 AUDIO
    TITLE "15:cjc034_04965"
    INDEX 01 00:05:56
  TRACK 09 AUDIO
    TITLE "0:"
    INDEX 01 00:10:47
  TRACK 10 AUDIO
    TITLE "12:cjc034_04966"
    INDEX 01 00:12:05
  TRACK 11 AUDIO
    TITLE "0:"
    INDEX 01 00:13:12
  TRACK 12 AUDIO
    TITLE "13:cjc034_04967"
    INDEX 01 00:13:45
  TRACK 13 AUDIO
    TITLE "0:"
    INDEX 01 00:17:45
  TRACK 14 AUDIO
    TITLE "14:cjc034_04968"
    INDEX 01 00:18:01
  TRACK 15 AUDIO
    TITLE "0:"
    INDEX 01 00:19:09
  TRACK 16 AUDIO
    TITLE "15:cjc034_04969"
    INDEX 01 00:19:42
  TRACK 17 AUDIO
    TITLE "0:"
    INDEX 01 00:24:61
  TRACK 18 AUDIO
    TITLE "12:cjc034_04970"
    INDEX 01 00:26:20
  TRACK 19 AUDIO
    TITLE "0:"
    INDEX 01 00:27:26
  TRACK 20 AUDIO
    TITLE "13:cjc034_04971"
    INDEX 01 00:27:59
  TRACK 21 AUDIO
    TITLE "0:"
    INDEX 01 00:31:04
  TRACK 22 AUDIO
    TITLE "14:cjc034_04972"
    INDEX 01 00:31:37
  TRACK 23 AUDIO
    TITLE "0:"
    INDEX 01 00:32:43
  TRACK 24 AUDIO
    TITLE "15:cjc034_04973"
    INDEX 01 00:33:01
  TRACK 25 AUDIO
    TITLE "0:"
    INDEX 01 00:36:58
  TRACK 26 AUDIO
    TITLE "16:cjc034_04974"
    INDEX 01 00:38:16
  TRACK 27 AUDIO
    TITLE "0:"
    INDEX 01 00:40:05
  TRACK 28 AUDIO
    TITLE "12:cjc034_04975"
    INDEX 01 00:41:06
  TRACK 29 AUDIO
    TITLE "0:"
    INDEX 01 00:42:27
  TRACK 30 AUDIO
    TITLE "13:cjc034_04976"
    INDEX 01 00:42:59
  TRACK 31 AUDIO
    TITLE "0:"
    INDEX 01 00:46:37
  TRACK 32 AUDIO
    TITLE "14:cjc034_04977"
    INDEX 01 00:46:70
  TRACK 33 AUDIO
    TITLE "0:"
    INDEX 01 00:48:14
  TRACK 34 AUDIO
    TITLE "15:cjc034_04978"
    INDEX 01 00:48:48
  TRACK 35 AUDIO
    TITLE "0:"
    INDEX 01 00:52:59
  TRACK 36 AUDIO
    TITLE "12:cjc034_04979"
    INDEX 01 00:54:19
  TRACK 37 AUDIO
    TITLE "0:"
    INDEX 01 00:55:36
  TRACK 38 AUDIO
    TITLE "13:cjc034_04980"
    INDEX 01 00:55:67
  TRACK 39 AUDIO
    TITLE "0:"
    INDEX 01 00:59:49
  TRACK 40 AUDIO
    TITLE "14:cjc034_04981"
    INDEX 01 01:00:04
  TRACK 41 AUDIO
    TITLE "0:"
    INDEX 01 01:01:21
  TRACK 42 AUDIO
    TITLE "15:cjc034_04982"
    INDEX 01 01:01:54
  TRACK 43 AUDIO
    TITLE "0:"
    INDEX 01 01:06:08
  TRACK 44 AUDIO
    TITLE "12:cjc034_04983"
    INDEX 01 01:07:41
  TRACK 45 AUDIO
    TITLE "0:"
    INDEX 01 01:08:40
  TRACK 46 AUDIO
    TITLE "13:cjc034_04984"
    INDEX 01 01:08:74
  TRACK 47 AUDIO
    TITLE "0:"
    INDEX 01 01:10:12
  TRACK 48 AUDIO
    TITLE "14:cjc034_04985"
    INDEX 01 01:10:43
  TRACK 49 AUDIO
    TITLE "0:"
    INDEX 01 01:11:41
  TRACK 50 AUDIO
    TITLE "15:cjc034_04986"
    INDEX 01 01:12:03
  TRACK 51 AUDIO
    TITLE "0:"
    INDEX 01 01:14:65
  TRACK 52 AUDIO
    TITLE "12:cjc034_04987"
    INDEX 01 01:16:26
  TRACK 53 AUDIO
    TITLE "0:"
    INDEX 01 01:17:47
  TRACK 54 AUDIO
    TITLE "13:cjc034_04988"
    INDEX 01 01:18:06
  TRACK 55 AUDIO
    TITLE "0:"
    INDEX 01 01:22:27
  TRACK 56 AUDIO
    TITLE "14:cjc034_04989"
    INDEX 01 01:22:62
  TRACK 57 AUDIO
    TITLE "0:"
    INDEX 01 01:24:08
  TRACK 58 AUDIO
    TITLE "15:cjc034_04990"
    INDEX 01 01:24:41
  TRACK 59 AUDIO
    TITLE "0:"
    INDEX 01 01:27:40
